<svg width="42" height="42" viewBox="0 0 42 42" fill="none" xmlns="http://www.w3.org/2000/svg">
<path d="M1 0.5H0.5V1V34C0.5 38.1421 3.85787 41.5 8 41.5H41H41.5V41V8C41.5 3.85786 38.1421 0.5 34 0.5H1Z" fill="#D6FFF0"/>
<path d="M1 0.5H0.5V1V34C0.5 38.1421 3.85787 41.5 8 41.5H41H41.5V41V8C41.5 3.85786 38.1421 0.5 34 0.5H1Z" stroke="#72FFCB"/>
<path d="M22 30V28H24V30H22ZM20 28V23H22V28H20ZM28 25V21H30V25H28ZM26 21V19H28V21H26ZM14 23V21H16V23H14ZM12 21V19H14V21H12ZM21 14V12H23V14H21ZM13.25 16.75H16.75V13.25H13.25V16.75ZM12 18V12H18V18H12ZM13.25 28.75H16.75V25.25H13.25V28.75ZM12 30V24H18V30H12ZM25.25 16.75H28.75V13.25H25.25V16.75ZM24 18V12H30V18H24ZM26 30V27H24V25H28V28H30V30H26ZM22 23V21H26V23H22ZM18 23V21H16V19H22V21H20V23H18ZM19 18V14H21V16H23V18H19ZM14.25 15.75V14.25H15.75V15.75H14.25ZM14.25 27.75V26.25H15.75V27.75H14.25ZM26.25 15.75V14.25H27.75V15.75H26.25Z" fill="black"/>
</svg>
